Coordinates
version=1
nRows=24
nColumns=24
inDegrees=yes

Units are S.I. units (second, meters, Newtons, ...)
Angles are in degrees.

endheader
time	pelvis_tilt	pelvis_list	pelvis_rotation	pelvis_tx	pelvis_ty	pelvis_tz	hip_flexion_r	hip_adduction_r	hip_rotation_r	knee_angle_r	ankle_angle_r	subtalar_angle_r	mtp_angle_r	hip_flexion_l	hip_adduction_l	hip_rotation_l	knee_angle_l	ankle_angle_l	subtalar_angle_l	mtp_angle_l	lumbar_extension	lumbar_bending	lumbar_rotation
      2.19000000	     -7.28060198	      5.05201502	    360.91493043	     -0.62268464	      1.37145918	     -1.02682949	     -1.81009656	     -1.34217390	      1.56853075	    -11.72184900	      8.74728745	     -9.20433386	      6.18439634	     21.52368870	      5.75405348	    -11.15424191	      6.95990052	     -7.00385564	     19.19228408	     33.98902015	      8.04324835	     -3.40191665	    112.50245028
      2.19500000	     -7.27329376	      5.22057041	    360.80776163	     -0.61749936	      1.37090609	     -1.02709497	     -2.09759606	     -1.54584574	      1.70857558	    -11.80834314	      8.83756811	     -9.21709425	      6.23975676	     21.64562975	      5.90232575	    -11.34696676	      6.25404454	     -7.00537199	     18.82509282	     33.96833962	      8.05613276	     -3.62854956	    112.51796515
      2.20000000	     -7.23917422	      5.37256685	    360.71849282	     -0.61233596	      1.37040789	     -1.02744674	     -2.40687274	     -1.73703701	      1.79159652	    -11.90467780	      8.87297785	     -9.24121739	      6.38326517	     21.72334395	      6.04416682	    -11.33346890	      5.56237983	     -7.17753604	     18.01319433	     33.91704923	      8.03333163	     -3.81114695	    112.59161084
      2.20500000	     -7.23621399	      5.53398959	    360.62215452	     -0.60717404	      1.36989696	     -1.02774109	     -2.66648192	     -1.93328441	      1.91228276	    -12.03024350	      8.91326287	     -9.28757127	      6.51497130	     21.83350582	      6.18877786	    -11.34031765	      4.86194319	     -7.39114321	     17.30343904	     33.94476353	      8.03845708	     -4.02529014	    112.61112083
      2.21000000	     -7.23151269	      5.69674162	    360.53627710	     -0.60200936	      1.36941258	     -1.02804059	     -2.91591402	     -2.12979052	      2.02242581	    -12.18104532	      8.92461797	     -9.33622578	      6.63326644	     21.92503766	      6.33898139	    -11.25953879	      4.19068579	     -7.66558763	     16.52844254	     34.02575952	      8.04131913	     -4.24906706	    112.64194010
      2.21500000	     -7.25411360	      5.85720100	    360.44513396	     -0.59684467	      1.36894557	     -1.02834416	     -3.11547220	     -2.32398153	      2.14429450	    -12.36691262	      8.94183982	     -9.37945561	      6.72993051	     22.02987272	      6.48953614	    -11.16186239	      3.55517538	     -8.03234673	     15.71823480	     34.11242066	      8.07235982	     -4.46339243	    112.68078617
      2.22000000	     -7.27240751	      6.02686830	    360.37343162	     -0.59168207	      1.36851252	     -1.02866762	     -3.30254019	     -2.52802080	      2.23641668	    -12.59081849	      8.93961887	     -9.40302015	      6.82189777	     22.10674497	      6.65992321	    -10.98382490	      2.97331955	     -8.45187023	     14.86968722	     34.28910725	      8.09115004	     -4.69754352	    112.70452193
      2.22500000	     -7.29085275	      6.18543407	    360.29051022	     -0.58656149	      1.36812521	     -1.02899185	     -3.45939447	     -2.71943799	      2.34444234	    -12.86180746	      8.94089268	     -9.41307071	      6.89130028	     22.16958342	      6.81992295	    -10.81360181	      2.43006394	     -8.92697180	     14.04966518	     34.41117379	      8.10496631	     -4.90781425	    112.73761856
      2.23000000	     -7.36566632	      6.35091665	    360.24016085	     -0.58138739	      1.36773944	     -1.02934558	     -3.53290411	     -2.91828635	      2.41424494	    -13.18587751	      8.90695227	     -9.41769447	      6.97795100	     22.26743419	      6.99867358	    -10.55258125	      1.93962463	     -9.42927911	     13.20066428	     34.65958731	      8.18774610	     -5.14478669	    112.76595959
      2.23500000	     -7.41233353	      6.50504858	    360.17862000	     -0.57628601	      1.36743705	     -1.02970123	     -3.59682464	     -3.10592525	      2.48676556	    -13.57086604	      8.84622220	     -9.38392389	      7.10302807	     22.31989153	      7.16577950	    -10.31958264	      1.49662980	     -9.99793217	     12.39139562	     35.06716413	      8.21452218	     -5.36198192	    112.74631645
      2.24000000	     -7.47928807	      6.65809731	    360.13075945	     -0.57114936	      1.36717074	     -1.03008246	     -3.60891895	     -3.29263409	      2.54559425	    -14.01632105	      8.75843499	     -9.35760773	      7.23609925	     22.37409004	      7.33775142	    -10.04422872	      1.08062640	    -10.51969502	     11.61538596	     35.31003335	      8.27655173	     -5.57755339	    112.76968610
      2.24500000	     -7.54920929	      6.81299634	    360.08096635	     -0.56600729	      1.36697815	     -1.03047117	     -3.58012685	     -3.48241288	      2.60174571	    -14.52723314	      8.64142606	     -9.31757857	      7.37857825	     22.41663838	      7.51176583	     -9.77475125	      0.68150435	    -11.00018696	     10.90329866	     35.39776148	      8.34292772	     -5.79004040	    112.84365187
      2.25000000	     -7.63400565	      6.95070840	    360.03358190	     -0.56088984	      1.36683798	     -1.03087843	     -3.48187278	     -3.65639362	      2.64268267	    -15.13007820	      8.47126704	     -9.24645841	      7.59922409	     22.46636137	      7.66645916	     -9.49440424	      0.29762929	    -11.44813693	     10.20858375	     35.55589106	      8.41700031	     -5.98194591	    112.86983158
      2.25500000	     -7.68708500	      7.09081471	    359.99617547	     -0.55574892	      1.36679965	     -1.03130334	     -3.38091856	     -3.83491720	      2.66184048	    -15.79978363	      8.24472500	     -9.16762349	      7.90381154	     22.46308546	      7.82954694	     -9.22225570	     -0.06052645	    -11.87376108	      9.54078018	     35.73333069	      8.45712523	     -6.18250730	    112.89356562
      2.26000000	     -7.74075287	      7.21817099	    359.96726354	     -0.55060585	      1.36684859	     -1.03174491	     -3.23636391	     -4.00279260	      2.65504465	    -16.53819280	      7.93594908	     -9.09308847	      8.30768515	     22.46606404	      7.97808723	     -8.96328400	     -0.44602650	    -12.24079388	      8.91917140	     35.88301269	      8.49571731	     -6.36800411	    112.93342575
      2.26500000	     -7.78831318	      7.34102832	    359.94076176	     -0.54543135	      1.36697818	     -1.03221584	     -3.05027287	     -4.17236319	      2.63070183	    -17.35596122	      7.52107160	     -9.00953950	      8.84078778	     22.45306796	      8.12261469	     -8.71144814	     -0.83042019	    -12.52529616	      8.33239016	     35.98265647	      8.53443983	     -6.54101750	    112.96505408
      2.27000000	     -7.80981400	      7.46057126	    359.90485039	     -0.54027375	      1.36721006	     -1.03267714	     -2.83184780	     -4.34148302	      2.60325686	    -18.27039668	      7.05829720	     -8.92460838	      9.46235052	     22.41312918	      8.25782928	     -8.48900209	     -1.23151874	    -12.72702282	      7.79285668	     35.97307503	      8.54093582	     -6.71061243	    113.01070752
      2.27500000	     -7.81891977	      7.56704590	    359.86828873	     -0.53514707	      1.36752359	     -1.03316114	     -2.56300976	     -4.50211593	      2.55966014	    -19.28560381	      6.53878487	     -8.84143384	     10.16344199	     22.36866722	      8.37838668	     -8.29053961	     -1.66084613	    -12.85747472	      7.29036867	     35.85086179	      8.52675384	     -6.85810401	    113.05773359
      2.28000000	     -7.82390914	      7.67347605	    359.82872162	     -0.52995387	      1.36792147	     -1.03364667	     -2.25401297	     -4.66916850	      2.52154464	    -20.36472898	      5.87799023	     -8.74999417	     11.04077543	     22.31265452	      8.49602541	     -8.08460799	     -2.10267887	    -12.85822297	      6.83063189	     35.63708770	      8.52607122	     -7.00811513	    113.11434621
      2.28500000	     -7.79258088	      7.76800363	    359.78050952	     -0.52480131	      1.36842435	     -1.03414003	     -1.92027706	     -4.82850569	      2.47979157	    -21.53472641	      5.14354613	     -8.68621004	     12.01816947	     22.22430920	      8.59977314	     -7.90693201	     -2.56782462	    -12.78714027	      6.42105650	     35.32028957	      8.47738262	     -7.13837425	    113.17399595
      2.29000000	     -7.75203149	      7.85810536	    359.73298180	     -0.51964658	      1.36898258	     -1.03464688	     -1.54030246	     -4.98998892	      2.42683146	    -22.78419719	      4.33043176	     -8.62149103	     13.09545378	     22.12799127	      8.70005140	     -7.73496131	     -3.05019709	    -12.62891053	      6.07101716	     34.91800259	      8.42186494	     -7.26205704	    113.23333172
      2.29500000	     -7.66433777	      7.94065945	    359.67928703	     -0.51450330	      1.36964191	     -1.03516687	     -1.16125879	     -5.14938497	      2.37551111	    -24.09458393	      3.42374972	     -8.57723090	     14.26605553	     21.97504411	      8.79607609	     -7.56957142	     -3.53329019	    -12.40644448	      5.75845227	     34.44004298	      8.31364010	     -7.37071962	    113.29453841
      2.30000000	     -7.56426952	      8.01164243	    359.62768123	     -0.50938906	      1.37033725	     -1.03570902	     -0.74113301	     -5.30293263	      2.31397925	    -25.47184513	      2.43009755	     -8.57800571	     15.56324710	     21.81325927	      8.88346587	     -7.42231474	     -4.03404800	    -12.10044703	      5.54367413	     33.89074657	      8.19212926	     -7.46087950	    113.36120208
      2.30500000	     -7.46839356	      8.08673037	    359.57325774	     -0.50427229	      1.37105999	     -1.03625973	     -0.26614848	     -5.46684471	      2.26167057	    -26.91044003	      1.39523762	     -8.52259343	     16.80412175	     21.64065366	      8.97969268	     -7.26412466	     -4.50904914	    -11.78669203	      5.28893401	     33.31689905	      8.08055620	     -7.55874542	    113.41159069
